<svg width="413" height="181" xmlns="http://www.w3.org/2000/svg" xml:space="preserve" enable-background="new 0 0 512 145" version="1.1">
 <defs>
  <filter height="200%" width="200%" y="-50%" x="-50%" id="svg_53_blur">
   <feGaussianBlur stdDeviation="0.1" in="SourceGraphic"/>
  </filter>
 </defs>
 <g>
  <title>Layer 1</title>
  <g stroke="null">
   <title stroke="null"/>
   <desc stroke="null"/>

   <g stroke="null" id="svg_30" fill-rule="evenodd" fill="none">
    <g stroke="null" transform="translate(-532 -552)" id="svg_31">
     <g stroke="null" transform="translate(532 552)" id="svg_32">
      <path stroke="null" id="svg_52" fill="#FFFFFF" d="m18.72727,122.50002c0,-65.77208 53.31882,-119.09091 119.09091,-119.09091c65.77208,0 119.09091,53.31882 119.09091,119.09091c0,65.77208 -53.31882,119.09091 -119.09091,119.09091c-65.77208,0 -119.09091,-53.31882 -119.09091,-119.09091z"/>
      <g stroke="null" transform="translate(14 11)">
       <path stroke="null" id="svg_51" fill="#E48013" d="m134.6837,147.67544c-0.917,7.24867 -12.7467,11.71061 -26.41039,9.97585c-13.65973,-1.7427 -23.99285,-9.03106 -23.06394,-16.2837c0.92097,-7.24867 12.7467,-11.71458 26.40642,-9.97188c13.66767,1.73873 23.98888,9.03106 23.06791,16.27973"/>
       <path stroke="null" id="svg_50" fill="#E48013" d="m31.57797,146.97558c1.07579,7.26851 13.362,11.921 27.45839,10.40061c14.09242,-1.52833 24.63991,-8.65791 23.56412,-15.93039c-1.07182,-7.26455 -13.37391,-11.921 -27.46236,-10.39267c-14.09242,1.52436 -24.64785,8.65394 -23.56015,15.92245"/>
       <path stroke="null" id="svg_49" fill="#000000" d="m133.46064,52.4706c0,27.08921 -22.13106,49.05751 -49.44257,49.05751c-27.29564,0 -49.43067,-21.9683 -49.43067,-49.05751c0,-27.10112 22.13503,-49.06148 49.43067,-49.06148c27.31151,0 49.44257,21.96036 49.44257,49.06148"/>
       <path stroke="null" id="svg_48" fill="#F5A519" d="m31.14409,145.52982c1.07579,7.26851 13.362,11.921 27.45839,10.40061c14.09242,-1.52833 24.63991,-8.65791 23.56412,-15.93039c-1.07182,-7.26455 -13.37391,-11.921 -27.46236,-10.39267c-14.09242,1.52436 -24.64785,8.65394 -23.56015,15.92245"/>
       <path stroke="null" id="svg_47" fill="#F5A519" d="m135.24184,145.91925c-0.917,7.24867 -12.7467,11.71061 -26.41039,9.97585c-13.65973,-1.7427 -23.99285,-9.03106 -23.06394,-16.2837c0.92097,-7.24867 12.7467,-11.71458 26.40642,-9.97188c13.66767,1.73873 23.98888,9.03106 23.06791,16.27973"/>
       <path stroke="null" id="svg_46" fill="#000000" d="m130.98911,106.80186c0,21.94845 -21.36094,39.74064 -47.69988,39.74064c-26.33894,0 -47.69194,-17.79218 -47.69194,-39.74064c0,-21.94845 21.353,-39.74064 47.69194,-39.74064c26.33894,0 47.69988,17.79218 47.69988,39.74064"/>
       <path stroke="null" id="svg_45" fill="#000000" d="m43.40211,98.90494c-7.00255,13.9773 -17.9867,22.82576 -21.24979,21.091c-4.31506,-2.30242 -5.35909,-16.42264 1.64742,-30.39597c7.01445,-13.96936 18.32015,-22.92103 23.73482,-20.20973c5.40276,2.71924 2.87406,15.54136 -4.13245,29.5147"/>
       <path stroke="null" id="svg_44" fill="#000000" d="m123.9298,100.6651c6.40709,12.69906 15.63664,22.55582 19.58251,21.68645c3.1837,-0.69867 5.45833,-15.5493 -0.37315,-29.77273c-5.92676,-14.46161 -16.6767,-24.84633 -22.09533,-22.13106c-5.4107,2.71527 -4.15627,16.26385 2.88597,30.21733"/>
       <path stroke="null" id="svg_43" fill="#FFFFFF" d="m48.30191,81.83603c-2.94552,6.04188 -4.63264,12.90945 -4.63264,20.20576c0,24.08812 18.14548,43.61506 40.53061,43.61506c22.38512,0 40.52664,-19.52694 40.52664,-43.61506c0,-7.09782 -1.60773,-13.77882 -4.40239,-19.70161c-20.62655,10.51573 -58.39424,2.81055 -72.02221,-0.50415"/>
       <path stroke="null" id="svg_42" fill="#FFFFFF" d="m80.61802,41.15855c0,6.54206 -4.33094,11.84558 -9.67812,11.84558c-5.34321,0 -9.67415,-5.30352 -9.67415,-11.84558c0,-6.54206 4.33094,-11.84558 9.67415,-11.84558c5.34718,0 9.67812,5.30352 9.67812,11.84558"/>
       <path stroke="null" id="svg_41" fill="#FFFFFF" d="m108.40391,41.22445c0,6.54206 -4.33094,11.84558 -9.67812,11.84558c-5.33924,0 -9.67415,-5.30352 -9.67415,-11.84558c0,-6.54206 4.33491,-11.84558 9.67415,-11.84558c5.34718,0 9.67812,5.30352 9.67812,11.84558"/>
       <path stroke="null" id="svg_40" fill="#F5A519" d="m85.70995,56.31049c-13.47315,0 -25.23933,3.14797 -31.76948,7.84412c1.63552,3.85458 6.57779,6.85567 11.42479,9.64239c5.8553,3.3663 15.47388,5.64491 20.31294,5.64491c4.46591,0 15.52151,-3.00903 21.49194,-6.91124c4.19994,-2.73909 8.63012,-5.15664 10.24182,-8.4237c-6.54206,-4.66836 -18.27251,-7.79648 -31.702,-7.79648"/>
       <path stroke="null" id="svg_39" fill="#000000" d="m79.12144,41.22445c0,4.14039 -2.7113,7.49876 -6.04982,7.49876c-3.34248,0 -6.05379,-3.35836 -6.05379,-7.49876c0,-4.14039 2.7113,-7.49876 6.05379,-7.49876c3.33852,0 6.04982,3.35836 6.04982,7.49876"/>
       <path stroke="null" id="svg_38" fill="#FFFFFF" d="m76.86348,39.51867c0,1.67124 -1.13533,3.02888 -2.53664,3.02888c-1.4013,0 -2.53664,-1.35764 -2.53664,-3.02888c0,-1.66727 1.13533,-3.02094 2.53664,-3.02094c1.4013,0 2.53664,1.35367 2.53664,3.02094"/>
       <path stroke="null" id="svg_37" fill="#000000" d="m93.99233,43.17238c-0.56767,0 -1.06785,-0.40888 -1.17106,-0.98448c-0.06352,-0.36124 -0.09527,-0.73836 -0.09527,-1.12342c0,-3.16782 2.24685,-5.74415 5.00579,-5.74415c2.75894,0 5.00579,2.57633 5.00579,5.74415c0,0.27788 -0.01588,0.54782 -0.04764,0.81379c-0.08336,0.65103 -0.68676,1.11152 -1.33382,1.03212c-0.65103,-0.08336 -1.11152,-0.67882 -1.03212,-1.32985c0.02382,-0.16673 0.03573,-0.34139 0.03573,-0.51606c0,-1.85385 -1.179,-3.36233 -2.62794,-3.36233c-1.44894,0 -2.62794,1.50848 -2.62794,3.36233c0,0.24215 0.02382,0.48033 0.06352,0.70661c0.11512,0.65103 -0.31758,1.26633 -0.96464,1.38145c-0.07145,0.01191 -0.13894,0.01985 -0.21039,0.01985"/>
       <path stroke="null" id="svg_36" fill="#8A3322" d="m58.70887,62.19715c0,0 7.43921,6.37136 14.28297,8.27285c8.00291,2.22303 19.56664,1.17503 23.94918,-0.29376c7.96718,-2.67558 16.43455,-8.43958 16.43455,-8.43958c0,0 -7.48288,5.7243 -15.19997,10.76979c-3.87839,2.53267 -8.12597,6.14112 -17.06573,4.20391c-2.2667,-0.48827 -6.32373,-3.2353 -7.61388,-3.98161c-6.60558,-3.82282 -13.23894,-8.99136 -14.78712,-10.53161"/>
       <path stroke="null" id="svg_35" fill="#D42E19" d="m66.91979,96.15275l0,21.5753c0,0 -8.91594,4.21979 -16.90297,-3.40203c-3.06064,-2.91773 1.63948,-23.68321 1.63948,-23.68321l15.26348,5.50994z"/>
       <path stroke="null" id="svg_34" fill="#B82C22" d="m50.44793,91.98139l16.34324,13.08809c0,0 0.27391,-8.18155 -0.07939,-10.51176c-0.35727,-2.32624 -16.26385,-3.73152 -16.26385,-3.73152"/>
       <path stroke="null" id="svg_33" fill="#D42E19" d="m85.70797,99.83146c-20.57494,0 -39.97088,-7.31218 -55.28597,-20.71388c-0.37315,-0.32552 -0.25803,-1.36558 -0.25803,-1.36558c0,0 0.58752,-2.27861 1.56406,-7.73694c0.68279,-3.81488 2.23097,-8.49515 3.0527,-8.49515c0.524,0.4327 1.15518,1.0083 1.77842,1.59185c1.12342,1.05197 2.21112,2.1357 2.56839,2.47312c12.67921,11.86542 29.10582,18.36779 46.58042,18.36779c17.38727,0 33.86945,-6.50236 46.54867,-18.34c0.10321,-0.09527 2.85421,3.46952 4.08879,7.09385c1.32191,3.88236 2.6597,8.10612 1.441,9.07076c-14.78712,11.69473 -32.98818,18.05418 -52.07845,18.05418"/>
      </g>
     </g>
    </g>
   </g>
  </g>
  <text transform="matrix(1.14594 0 0 1.14594 -35.9666 -37.041)" stroke="null" filter="url(#svg_53_blur)" xml:space="preserve" text-anchor="start" font-family="Noto Sans JP" font-size="94" stroke-width="0" id="svg_53" y="159.18804" x="188.79525" fill="#000000">QQ</text>
 </g>
</svg>